<svg xmlns="http://www.w3.org/2000/svg" width="33" height="29.099" viewBox="0 0 33 29.099"><path d="M.948,30.649a1.587,1.587,0,0,0-.8,2.13l1.3,2.742a1.592,1.592,0,0,0,2.076.772,18.341,18.341,0,0,0,5.75-3.727,13.909,13.909,0,0,0,3.86-6.1A33.435,33.435,0,0,0,14.206,17.1V8.925a1.6,1.6,0,0,0-1.6-1.6H2.146a1.6,1.6,0,0,0-1.6,1.6V19.388a1.6,1.6,0,0,0,1.6,1.6h5a11.225,11.225,0,0,1-1.864,6.469A10.119,10.119,0,0,1,.948,30.649Z" transform="translate(18.795 -7.328)" fill="#34a853"/><path d="M71.648,30.749a1.587,1.587,0,0,0-.8,2.13l1.3,2.715a1.592,1.592,0,0,0,2.076.772,19.284,19.284,0,0,0,5.724-3.7,14.208,14.208,0,0,0,3.887-6.123A32.986,32.986,0,0,0,84.879,17.2V9.026a1.6,1.6,0,0,0-1.6-1.6H72.819a1.6,1.6,0,0,0-1.6,1.6V19.488a1.6,1.6,0,0,0,1.6,1.6h5.031a11.227,11.227,0,0,1-1.864,6.469A10.117,10.117,0,0,1,71.648,30.749Z" transform="translate(-70.7 -7.429)" fill="#34a853"/></svg>