<svg xmlns="http://www.w3.org/2000/svg" width="90.5" height="37.507" viewBox="0 0 90.5 37.507">
  <g id="Group_170" data-name="Group 170" transform="translate(-114.356 -186.383)">
    <g id="Group_164" data-name="Group 164" transform="translate(129.395 211.01)">
      <path id="Path_261" data-name="Path 261" d="M164.838,268.024a6.438,6.438,0,0,1-.258,1.882,3.979,3.979,0,0,1-.78,1.454,3.505,3.505,0,0,1-1.31.941,4.722,4.722,0,0,1-1.857.335,8.868,8.868,0,0,1-.954-.051,8.077,8.077,0,0,1-.979-.17l.153-1.67a.54.54,0,0,1,.178-.356.629.629,0,0,1,.432-.136,1.7,1.7,0,0,1,.356.047,2.393,2.393,0,0,0,.509.047,2.1,2.1,0,0,0,.725-.115,1.124,1.124,0,0,0,.513-.382,1.841,1.841,0,0,0,.305-.7,4.75,4.75,0,0,0,.1-1.068v-7.936h2.866Z" transform="translate(-158.699 -259.757)" fill="#0969c3"/>
      <path id="Path_262" data-name="Path 262" d="M185.01,270.247a5.086,5.086,0,0,1,1.823.314,4,4,0,0,1,1.412.9,4.049,4.049,0,0,1,.916,1.42,5.119,5.119,0,0,1,.327,1.878,5.214,5.214,0,0,1-.327,1.9,4.073,4.073,0,0,1-.916,1.433,4.011,4.011,0,0,1-1.412.908,5.019,5.019,0,0,1-1.823.318,5.076,5.076,0,0,1-1.836-.318,4.09,4.09,0,0,1-1.424-.908,4.017,4.017,0,0,1-.924-1.433,5.214,5.214,0,0,1-.326-1.9,5.12,5.12,0,0,1,.326-1.878,3.994,3.994,0,0,1,.924-1.42,4.079,4.079,0,0,1,1.424-.9A5.144,5.144,0,0,1,185.01,270.247Zm0,7.114a1.492,1.492,0,0,0,1.335-.64,4.625,4.625,0,0,0,0-3.888,1.5,1.5,0,0,0-1.335-.636,1.534,1.534,0,0,0-1.365.636,4.589,4.589,0,0,0,0,3.888A1.53,1.53,0,0,0,185.01,277.361Z" transform="translate(-173.105 -266.431)" fill="#0969c3"/>
      <path id="Path_263" data-name="Path 263" d="M213.526,263.98a4.379,4.379,0,0,1,1.115-.776,3.076,3.076,0,0,1,1.352-.292,2.93,2.93,0,0,1,2.4,1.174,4.11,4.11,0,0,1,.665,1.361,6.336,6.336,0,0,1,.233,1.781,6.53,6.53,0,0,1-.271,1.941,4.536,4.536,0,0,1-.768,1.5,3.5,3.5,0,0,1-1.183.967,3.346,3.346,0,0,1-1.518.344,3.025,3.025,0,0,1-.713-.077,2.435,2.435,0,0,1-.577-.216,2.365,2.365,0,0,1-.479-.335,5.381,5.381,0,0,1-.42-.424l-.093.441a.6.6,0,0,1-.22.373.722.722,0,0,1-.407.1H210.9V259.147h2.628Zm0,5.469a1.74,1.74,0,0,0,.644.458,1.919,1.919,0,0,0,.7.136,1.661,1.661,0,0,0,.686-.14,1.312,1.312,0,0,0,.539-.458,2.465,2.465,0,0,0,.352-.839,6.541,6.541,0,0,0,.03-2.408,2.216,2.216,0,0,0-.288-.755,1.135,1.135,0,0,0-.475-.424,1.526,1.526,0,0,0-.649-.132,1.611,1.611,0,0,0-.839.212,2.9,2.9,0,0,0-.7.619Z" transform="translate(-193.194 -259.096)" fill="#0969c3"/>
      <path id="Path_264" data-name="Path 264" d="M242.681,262.352v3.129H246.9v2.213h-4.222V272.5H239.8V260.147h7.953v2.2Z" transform="translate(-212.293 -259.757)" fill="#fff"/>
      <path id="Path_265" data-name="Path 265" d="M269.769,260.54a1.39,1.39,0,0,1-.127.589,1.553,1.553,0,0,1-.348.483,1.709,1.709,0,0,1-.513.331,1.59,1.59,0,0,1-.623.123,1.478,1.478,0,0,1-.6-.123,1.7,1.7,0,0,1-.5-.331,1.53,1.53,0,0,1-.339-.483,1.435,1.435,0,0,1-.123-.589,1.485,1.485,0,0,1,.123-.6,1.57,1.57,0,0,1,.339-.492,1.594,1.594,0,0,1,.5-.33,1.521,1.521,0,0,1,.6-.119,1.637,1.637,0,0,1,.623.119,1.591,1.591,0,0,1,.861.822A1.438,1.438,0,0,1,269.769,260.54Zm-.272,2.408v8.793h-2.628v-8.793Z" transform="translate(-230.004 -258.997)" fill="#fff"/>
      <path id="Path_266" data-name="Path 266" d="M283,271.332a6.377,6.377,0,0,1,.525-.441,3.078,3.078,0,0,1,.581-.343,3.457,3.457,0,0,1,.67-.221,3.6,3.6,0,0,1,.784-.08,3.084,3.084,0,0,1,1.276.25,2.658,2.658,0,0,1,.937.7,3,3,0,0,1,.576,1.06,4.388,4.388,0,0,1,.2,1.336v5.587h-2.628v-5.587a1.539,1.539,0,0,0-.3-1,1.066,1.066,0,0,0-.873-.361,1.843,1.843,0,0,0-.81.182,3.285,3.285,0,0,0-.734.5v6.274h-2.628v-8.793H282.2a.618.618,0,0,1,.644.441Z" transform="translate(-239.238 -266.431)" fill="#fff"/>
      <path id="Path_267" data-name="Path 267" d="M316.191,259.147V271.84h-1.628a.618.618,0,0,1-.644-.441l-.2-.67a5.124,5.124,0,0,1-.551.509,3.465,3.465,0,0,1-.623.394,3.288,3.288,0,0,1-.721.254,3.709,3.709,0,0,1-.835.089,2.708,2.708,0,0,1-1.272-.306,2.933,2.933,0,0,1-1.009-.882,4.451,4.451,0,0,1-.665-1.412,6.845,6.845,0,0,1-.242-1.9,5.931,5.931,0,0,1,.271-1.827,4.484,4.484,0,0,1,.767-1.458,3.566,3.566,0,0,1,1.191-.963,3.384,3.384,0,0,1,1.535-.348,2.992,2.992,0,0,1,1.153.2,3.118,3.118,0,0,1,.848.525v-4.451Zm-2.628,6.258a1.662,1.662,0,0,0-.644-.463,2.053,2.053,0,0,0-.729-.131,1.55,1.55,0,0,0-.67.144,1.365,1.365,0,0,0-.53.462,2.457,2.457,0,0,0-.352.827,5.137,5.137,0,0,0-.127,1.229,5.693,5.693,0,0,0,.1,1.17,2.4,2.4,0,0,0,.284.767,1.1,1.1,0,0,0,.436.42,1.253,1.253,0,0,0,.568.127,2.243,2.243,0,0,0,.522-.055,1.745,1.745,0,0,0,.8-.415,3.5,3.5,0,0,0,.344-.361Z" transform="translate(-257.23 -259.096)" fill="#fff"/>
      <path id="Path_268" data-name="Path 268" d="M339.051,275.25a2.48,2.48,0,0,0,.669,1.6,1.993,1.993,0,0,0,1.4.5,2.512,2.512,0,0,0,.789-.11,3.973,3.973,0,0,0,.589-.246q.259-.136.475-.246a.989.989,0,0,1,.454-.11.544.544,0,0,1,.475.229l.763.941a3.9,3.9,0,0,1-.877.759,4.546,4.546,0,0,1-.967.458,5.213,5.213,0,0,1-.992.229,7.442,7.442,0,0,1-.945.064,4.943,4.943,0,0,1-1.734-.3,3.985,3.985,0,0,1-1.416-.895,4.218,4.218,0,0,1-.958-1.475,5.519,5.519,0,0,1-.352-2.052,4.641,4.641,0,0,1,.3-1.67,4.055,4.055,0,0,1,2.23-2.323,4.867,4.867,0,0,1,3.409-.076,3.477,3.477,0,0,1,1.246.789,3.6,3.6,0,0,1,.814,1.267,4.661,4.661,0,0,1,.292,1.7,3.7,3.7,0,0,1-.025.483.76.76,0,0,1-.094.3.352.352,0,0,1-.182.153.847.847,0,0,1-.292.042Zm3.307-1.526a2.327,2.327,0,0,0-.08-.61,1.488,1.488,0,0,0-.263-.53,1.341,1.341,0,0,0-.479-.378,1.641,1.641,0,0,0-.721-.144,1.574,1.574,0,0,0-1.17.428,2.231,2.231,0,0,0-.56,1.234Z" transform="translate(-276.146 -266.431)" fill="#fff"/>
      <path id="Path_269" data-name="Path 269" d="M367.2,271.673a3.689,3.689,0,0,1,.937-1.119,1.941,1.941,0,0,1,1.217-.407,1.566,1.566,0,0,1,.967.28l-.17,1.933a.406.406,0,0,1-.14.254.458.458,0,0,1-.267.068q-.068,0-.178-.008t-.229-.021l-.241-.025a2.207,2.207,0,0,0-.225-.013,1.335,1.335,0,0,0-.92.305,2.4,2.4,0,0,0-.581.848v5.342h-2.628v-8.793h1.56a1.345,1.345,0,0,1,.327.034.578.578,0,0,1,.22.106.448.448,0,0,1,.135.191,1.71,1.71,0,0,1,.081.289Z" transform="translate(-294.864 -266.365)" fill="#fff"/>
    </g>
    <g id="Logo" transform="translate(114.356 186.383)">
      <path id="Lup" d="M142.491,188.079l-1.217,3.392a7.811,7.811,0,1,1-4.7,0l-1.217-3.392a11.4,11.4,0,0,0-5.307,18.015h0l-5.148,5.148a1.2,1.2,0,0,0-1.7,0l-8.5,8.5a1.2,1.2,0,0,0,0,1.7l1.7,1.7a1.2,1.2,0,0,0,1.7,0l8.5-8.5a1.2,1.2,0,0,0,0-1.7l5.148-5.148a11.412,11.412,0,1,0,10.739-19.714Z" transform="translate(-114.356 -187.504)" fill="#fff"/>
      <path id="Tied" d="M183.319,189.988l1.2-3.348a11.372,11.372,0,0,0-4.806,0l1.2,3.348-1.2,12.017,2.4,2.4,2.4-2.4Z" transform="translate(-157.547 -186.383)" fill="#0969c3"/>
    </g>
  </g>
</svg>
