<svg xmlns="http://www.w3.org/2000/svg" width="79.625" height="33" viewBox="0 0 79.625 33">
  <g id="Group_177" data-name="Group 177" transform="translate(-165 -20)">
    <g id="Group_165" data-name="Group 165" transform="translate(50.644 -166.383)">
      <g id="Group_164" data-name="Group 164" transform="translate(127.588 208.051)">
        <path id="Path_261" data-name="Path 261" d="M164.1,267.077a5.664,5.664,0,0,1-.227,1.656,3.5,3.5,0,0,1-.686,1.28,3.084,3.084,0,0,1-1.153.828,4.155,4.155,0,0,1-1.634.3,7.8,7.8,0,0,1-.839-.045,7.1,7.1,0,0,1-.862-.149l.134-1.47a.475.475,0,0,1,.157-.313.553.553,0,0,1,.38-.12,1.5,1.5,0,0,1,.313.041,2.105,2.105,0,0,0,.448.041,1.845,1.845,0,0,0,.638-.1.989.989,0,0,0,.451-.336,1.62,1.62,0,0,0,.269-.616,4.179,4.179,0,0,0,.09-.94v-6.983H164.1Z" transform="translate(-158.699 -259.804)" fill="#0969c3"/>
        <path id="Path_262" data-name="Path 262" d="M184.468,270.247a4.474,4.474,0,0,1,1.6.276,3.52,3.52,0,0,1,1.242.791,3.563,3.563,0,0,1,.806,1.25,4.5,4.5,0,0,1,.287,1.652,4.587,4.587,0,0,1-.287,1.667,3.584,3.584,0,0,1-.806,1.26,3.529,3.529,0,0,1-1.242.8,4.416,4.416,0,0,1-1.6.28,4.467,4.467,0,0,1-1.615-.28,3.6,3.6,0,0,1-1.253-.8,3.534,3.534,0,0,1-.813-1.26,4.587,4.587,0,0,1-.287-1.667,4.5,4.5,0,0,1,.287-1.652,3.514,3.514,0,0,1,.813-1.25,3.589,3.589,0,0,1,1.253-.791A4.526,4.526,0,0,1,184.468,270.247Zm0,6.259a1.313,1.313,0,0,0,1.175-.563,4.069,4.069,0,0,0,0-3.421,1.316,1.316,0,0,0-1.175-.559,1.35,1.35,0,0,0-1.2.559,4.037,4.037,0,0,0,0,3.421A1.346,1.346,0,0,0,184.468,276.506Z" transform="translate(-173.994 -266.89)" fill="#0969c3"/>
        <path id="Path_263" data-name="Path 263" d="M213.211,263.4a3.854,3.854,0,0,1,.981-.683,2.706,2.706,0,0,1,1.19-.257,2.578,2.578,0,0,1,2.111,1.033,3.616,3.616,0,0,1,.585,1.2,5.574,5.574,0,0,1,.205,1.567,5.745,5.745,0,0,1-.238,1.708,3.991,3.991,0,0,1-.675,1.317,3.079,3.079,0,0,1-1.041.851,2.944,2.944,0,0,1-1.335.3,2.661,2.661,0,0,1-.627-.067,2.141,2.141,0,0,1-.507-.19,2.081,2.081,0,0,1-.421-.295,4.736,4.736,0,0,1-.369-.373l-.082.388a.529.529,0,0,1-.194.328.635.635,0,0,1-.358.09H210.9V259.147h2.313Zm0,4.812a1.531,1.531,0,0,0,.567.4,1.689,1.689,0,0,0,.619.119,1.462,1.462,0,0,0,.6-.123,1.155,1.155,0,0,0,.474-.4,2.17,2.17,0,0,0,.309-.739,5.755,5.755,0,0,0,.026-2.119,1.949,1.949,0,0,0-.254-.664,1,1,0,0,0-.418-.373,1.342,1.342,0,0,0-.571-.116,1.418,1.418,0,0,0-.738.186,2.555,2.555,0,0,0-.62.545Z" transform="translate(-195.322 -259.102)" fill="#0969c3"/>
        <path id="Path_264" data-name="Path 264" d="M242.334,262.087v2.753h3.715v1.947h-3.715v4.23H239.8V260.147h7v1.94Z" transform="translate(-215.598 -259.804)" fill="#34a853"/>
        <path id="Path_265" data-name="Path 265" d="M269.388,260.355a1.223,1.223,0,0,1-.112.519,1.367,1.367,0,0,1-.306.425,1.5,1.5,0,0,1-.451.291,1.4,1.4,0,0,1-.548.108,1.3,1.3,0,0,1-.53-.108A1.5,1.5,0,0,1,267,261.3a1.346,1.346,0,0,1-.3-.425,1.262,1.262,0,0,1-.108-.519,1.306,1.306,0,0,1,.108-.53,1.382,1.382,0,0,1,.3-.433,1.4,1.4,0,0,1,.437-.291,1.338,1.338,0,0,1,.53-.1,1.44,1.44,0,0,1,.548.1,1.4,1.4,0,0,1,.757.723A1.265,1.265,0,0,1,269.388,260.355Zm-.239,2.119v7.736h-2.313v-7.736Z" transform="translate(-234.401 -258.997)" fill="#34a853"/>
        <path id="Path_266" data-name="Path 266" d="M282.706,271.2a5.609,5.609,0,0,1,.462-.388,2.709,2.709,0,0,1,.511-.3,3.041,3.041,0,0,1,.589-.194,3.164,3.164,0,0,1,.69-.071,2.714,2.714,0,0,1,1.123.22,2.338,2.338,0,0,1,.824.612,2.637,2.637,0,0,1,.507.932,3.861,3.861,0,0,1,.172,1.175V278.1h-2.313v-4.916a1.354,1.354,0,0,0-.261-.884.938.938,0,0,0-.768-.317,1.621,1.621,0,0,0-.712.16,2.89,2.89,0,0,0-.645.437v5.52h-2.313v-7.736H282a.544.544,0,0,1,.567.388Z" transform="translate(-244.205 -266.89)" fill="#34a853"/>
        <path id="Path_267" data-name="Path 267" d="M315.182,259.147v11.168H313.75a.544.544,0,0,1-.567-.388l-.179-.589a4.507,4.507,0,0,1-.485.448,3.049,3.049,0,0,1-.548.347,2.893,2.893,0,0,1-.634.224,3.264,3.264,0,0,1-.735.078,2.383,2.383,0,0,1-1.119-.269,2.58,2.58,0,0,1-.888-.776,3.917,3.917,0,0,1-.585-1.242,6.023,6.023,0,0,1-.213-1.675,5.218,5.218,0,0,1,.239-1.607,3.945,3.945,0,0,1,.675-1.283,3.138,3.138,0,0,1,1.048-.847,2.977,2.977,0,0,1,1.35-.306,2.633,2.633,0,0,1,1.015.172,2.743,2.743,0,0,1,.746.462v-3.917Zm-2.313,5.506a1.463,1.463,0,0,0-.567-.407,1.806,1.806,0,0,0-.642-.115,1.364,1.364,0,0,0-.589.127,1.2,1.2,0,0,0-.466.407,2.163,2.163,0,0,0-.31.727,4.52,4.52,0,0,0-.112,1.082,5.008,5.008,0,0,0,.09,1.029,2.116,2.116,0,0,0,.25.675.971.971,0,0,0,.384.369,1.1,1.1,0,0,0,.5.112,1.974,1.974,0,0,0,.459-.049,1.535,1.535,0,0,0,.7-.365,3.071,3.071,0,0,0,.3-.317Z" transform="translate(-263.306 -259.102)" fill="#34a853"/>
        <path id="Path_268" data-name="Path 268" d="M338.735,274.648a2.182,2.182,0,0,0,.589,1.406,1.754,1.754,0,0,0,1.231.436,2.21,2.21,0,0,0,.694-.1,3.493,3.493,0,0,0,.518-.217q.228-.12.418-.216a.87.87,0,0,1,.4-.1.478.478,0,0,1,.418.2l.671.828a3.435,3.435,0,0,1-.772.668,4,4,0,0,1-.851.4,4.586,4.586,0,0,1-.873.2,6.548,6.548,0,0,1-.832.056,4.349,4.349,0,0,1-1.526-.265,3.506,3.506,0,0,1-1.246-.787,3.711,3.711,0,0,1-.843-1.3,4.856,4.856,0,0,1-.309-1.806,4.083,4.083,0,0,1,.265-1.47,3.568,3.568,0,0,1,1.962-2.044,4.282,4.282,0,0,1,3-.067,3.06,3.06,0,0,1,1.1.694,3.166,3.166,0,0,1,.716,1.115,4.1,4.1,0,0,1,.257,1.5,3.259,3.259,0,0,1-.022.425.668.668,0,0,1-.082.261.31.31,0,0,1-.16.134.745.745,0,0,1-.257.037Zm2.909-1.343a2.048,2.048,0,0,0-.071-.537,1.31,1.31,0,0,0-.232-.466,1.18,1.18,0,0,0-.421-.332,1.444,1.444,0,0,0-.634-.127,1.385,1.385,0,0,0-1.029.376,1.963,1.963,0,0,0-.493,1.086Z" transform="translate(-283.389 -266.89)" fill="#34a853"/>
        <path id="Path_269" data-name="Path 269" d="M366.909,271.49a3.246,3.246,0,0,1,.824-.984,1.707,1.707,0,0,1,1.07-.358,1.378,1.378,0,0,1,.85.246l-.149,1.7a.357.357,0,0,1-.123.224.4.4,0,0,1-.235.06q-.06,0-.157-.007l-.2-.019-.212-.022a1.946,1.946,0,0,0-.2-.011,1.175,1.175,0,0,0-.809.269,2.112,2.112,0,0,0-.511.746v4.7h-2.313V270.3h1.373a1.183,1.183,0,0,1,.287.03.509.509,0,0,1,.194.093.394.394,0,0,1,.119.168,1.506,1.506,0,0,1,.071.254Z" transform="translate(-303.261 -266.82)" fill="#34a853"/>
      </g>
      <g id="Logo" transform="translate(114.356 186.383)">
        <path id="Lup" d="M139.11,188.079l-1.07,2.984a6.873,6.873,0,1,1-4.133,0l-1.07-2.984a10.033,10.033,0,0,0-4.67,15.85h0l-4.53,4.529a1.058,1.058,0,0,0-1.5,0l-7.476,7.476a1.058,1.058,0,0,0,0,1.5l1.5,1.5a1.057,1.057,0,0,0,1.5,0l7.476-7.476a1.057,1.057,0,0,0,0-1.5l4.53-4.529a10.041,10.041,0,1,0,9.448-17.345Z" transform="translate(-114.356 -187.573)" fill="#34a853"/>
        <path id="Tied" d="M182.886,189.555l1.057-2.946a10.005,10.005,0,0,0-4.228,0l1.057,2.946-1.057,10.573,2.114,2.115,2.115-2.115Z" transform="translate(-160.211 -186.383)" fill="#0969c3"/>
      </g>
    </g>
  </g>
</svg>
