<svg xmlns="http://www.w3.org/2000/svg" xmlns:xlink="http://www.w3.org/1999/xlink" width="24.227" height="24.227" viewBox="0 0 24.227 24.227"><defs><clipPath id="a"><path d="M0-682.665H24.227v24.227H0Z" transform="translate(0 682.665)" fill="#34a853"/></clipPath></defs><g transform="translate(0 682.665)"><g transform="translate(0 -682.665)"><g clip-path="url(#a)"><g transform="translate(0 5.724)"><path d="M-639.148-2.965h-22.807a.71.71,0,0,1-.71-.71V-19.29a.71.71,0,0,1,.71-.71.71.71,0,0,1,.71.71V-4.385h21.388V-19.29a.71.71,0,0,1,.71-.71.71.71,0,0,1,.71.71V-3.675A.71.71,0,0,1-639.148-2.965Z" transform="translate(662.665 20)" fill="#34a853"/></g><g transform="translate(0 4.304)"><path d="M-283.238-250.062H-287.8a.71.71,0,0,1-.71-.71.71.71,0,0,1,.71-.71h4.529a4.281,4.281,0,0,0,3.138-1.155c1.066-1.061,1.606-2.821,1.606-5.233a.711.711,0,0,0-.71-.71H-299.2a.711.711,0,0,0-.71.71c0,2.388.541,4.139,1.608,5.2a4.29,4.29,0,0,0,3.164,1.184h4.5a.71.71,0,0,1,.71.71.71.71,0,0,1-.71.71h-4.483a5.675,5.675,0,0,1-4.187-1.6c-1.343-1.341-2.024-3.43-2.024-6.209A2.132,2.132,0,0,1-299.2-260h19.968a2.132,2.132,0,0,1,2.129,2.129c0,2.8-.681,4.9-2.025,6.239A5.6,5.6,0,0,1-283.238-250.062Z" transform="translate(301.333 259.999)" fill="#34a853"/></g><path d="M284.881-355.7h-2.839a.71.71,0,0,1-.71-.71v-4.259a.71.71,0,0,1,.71-.71h2.839a.71.71,0,0,1,.71.71v4.259A.71.71,0,0,1,284.881-355.7Zm-2.129-1.42h1.42v-2.839h-1.42Z" transform="translate(-271.349 372.782)" fill="#34a853"/><g transform="translate(7.145 1.465)"><path d="M-10.773-95.741a.71.71,0,0,1-.71-.71v-1.42a.711.711,0,0,0-.71-.71h-5.678a.711.711,0,0,0-.71.71v1.42a.71.71,0,0,1-.71.71.71.71,0,0,1-.71-.71v-1.42A2.132,2.132,0,0,1-17.871-100h5.678a2.132,2.132,0,0,1,2.129,2.129v1.42A.71.71,0,0,1-10.773-95.741Z" transform="translate(20 100)" fill="#34a853"/></g></g></g></g></svg>