<svg xmlns="http://www.w3.org/2000/svg" width="23.334" height="14.872" viewBox="0 0 23.334 14.872"><g transform="translate(0 -92.835)"><g transform="translate(0 92.835)"><g transform="translate(0 0)"><path d="M23.186,99.817c-.208-.285-5.175-6.982-11.519-6.982S.356,99.532.148,99.817a.77.77,0,0,0,0,.908c.208.285,5.175,6.982,11.519,6.982s11.31-6.7,11.519-6.982A.769.769,0,0,0,23.186,99.817Zm-11.519,6.351c-4.673,0-8.72-4.445-9.918-5.9,1.2-1.454,5.235-5.9,9.918-5.9s8.719,4.444,9.918,5.9C20.388,101.726,16.35,106.169,11.667,106.169Z" transform="translate(0 -92.835)" fill="#34a853"/></g></g><g transform="translate(7.051 95.656)"><g transform="translate(0 0)"><path d="M159.338,154.725a4.616,4.616,0,1,0,4.616,4.616A4.621,4.621,0,0,0,159.338,154.725Zm0,7.693a3.077,3.077,0,1,1,3.077-3.077A3.08,3.08,0,0,1,159.338,162.417Z" transform="translate(-154.722 -154.725)" fill="#34a853"/></g></g></g></svg>