<svg xmlns="http://www.w3.org/2000/svg" width="20.392" height="15.294" viewBox="0 0 20.392 15.294">
  <path id="envelope_1_" data-name="envelope (1)" d="M18.48,59.882H1.912A1.914,1.914,0,0,0,0,61.794V73.264a1.914,1.914,0,0,0,1.912,1.912H18.48a1.914,1.914,0,0,0,1.912-1.912V61.794A1.914,1.914,0,0,0,18.48,59.882Zm0,1.274a.634.634,0,0,1,.244.049L10.2,68.6,1.667,61.206a.634.634,0,0,1,.244-.049Zm0,12.745H1.912a.638.638,0,0,1-.637-.637V62.552l8.5,7.37a.638.638,0,0,0,.835,0l8.5-7.37V73.264A.638.638,0,0,1,18.48,73.9Z" transform="translate(0 -59.882)" fill="#ccd5e5"/>
</svg>
