<svg id="facebook_6_" data-name="facebook (6)" xmlns="http://www.w3.org/2000/svg" width="16.833" height="16.833" viewBox="0 0 16.833 16.833">
  <path id="Path_247" data-name="Path 247" d="M16.833,8.417a8.419,8.419,0,0,1-7.1,8.314V10.85h1.961l.373-2.433H9.732V6.838A1.216,1.216,0,0,1,11.1,5.523h1.061V3.452a12.946,12.946,0,0,0-1.884-.164A2.97,2.97,0,0,0,7.1,6.562V8.417H4.965V10.85H7.1v5.881a8.417,8.417,0,1,1,9.732-8.314Z" fill="#1877f2"/>
  <path id="Path_248" data-name="Path 248" d="M157.728,107.562l.373-2.433h-2.334V103.55a1.216,1.216,0,0,1,1.372-1.314H158.2v-2.071a12.943,12.943,0,0,0-1.884-.164,2.97,2.97,0,0,0-3.179,3.275v1.854H151v2.433h2.137v5.881a8.506,8.506,0,0,0,2.63,0v-5.881Z" transform="translate(-146.035 -96.712)" fill="#fff"/>
</svg>
