<svg id="google" xmlns="http://www.w3.org/2000/svg" width="14" height="14" viewBox="0 0 14 14">
  <path id="Path_249" data-name="Path 249" d="M273.3,211.479h-5.711a.457.457,0,0,0-.457.457v1.824a.457.457,0,0,0,.457.457H270.8a4.293,4.293,0,0,1-1.848,2.165l1.371,2.374a6.864,6.864,0,0,0,3.5-6,4.628,4.628,0,0,0-.079-.9A.459.459,0,0,0,273.3,211.479Z" transform="translate(-259.827 -205.696)" fill="#167ee6"/>
  <path id="Path_250" data-name="Path 250" d="M40.47,335.979a4.26,4.26,0,0,1-3.685-2.132l-2.374,1.368a6.994,6.994,0,0,0,9.559,2.566v0L42.6,335.4A4.229,4.229,0,0,1,40.47,335.979Z" transform="translate(-33.47 -324.718)" fill="#12b347"/>
  <path id="Path_251" data-name="Path 251" d="M259.5,393.156v0l-1.371-2.374a4.229,4.229,0,0,1-2.129.575v2.739A6.988,6.988,0,0,0,259.5,393.156Z" transform="translate(-249 -380.094)" fill="#0f993e"/>
  <path id="Path_252" data-name="Path 252" d="M2.739,131.616a4.229,4.229,0,0,1,.575-2.129L.941,128.119a6.968,6.968,0,0,0,0,6.993l2.374-1.368A4.229,4.229,0,0,1,2.739,131.616Z" transform="translate(0 -124.616)" fill="#ffd500"/>
  <path id="Path_253" data-name="Path 253" d="M40.47,2.739a4.241,4.241,0,0,1,2.705.971.455.455,0,0,0,.612-.028L45.08,2.39a.46.46,0,0,0-.026-.673A6.985,6.985,0,0,0,34.411,3.5l2.374,1.368A4.26,4.26,0,0,1,40.47,2.739Z" transform="translate(-33.47 0)" fill="#ff4b26"/>
  <path id="Path_254" data-name="Path 254" d="M258.705,3.71a.455.455,0,0,0,.612-.028L260.61,2.39a.46.46,0,0,0-.026-.673A6.979,6.979,0,0,0,256,0V2.739A4.241,4.241,0,0,1,258.705,3.71Z" transform="translate(-249)" fill="#d93f21"/>
</svg>
