<svg xmlns="http://www.w3.org/2000/svg" width="17.084" height="22" viewBox="0 0 17.084 22">
  <g id="Layer_5" transform="translate(-4.431 -1.1)">
    <path id="Path_255" data-name="Path 255" d="M18.972,9.932h-.539V6.561a5.461,5.461,0,1,0-10.921,0V9.932H6.973a2.545,2.545,0,0,0-2.542,2.542v8.084A2.545,2.545,0,0,0,6.973,23.1h12a2.545,2.545,0,0,0,2.542-2.542V12.474a2.546,2.546,0,0,0-2.543-2.542ZM8.841,6.561a4.131,4.131,0,1,1,8.263,0V9.932H8.841Zm11.344,14a1.214,1.214,0,0,1-1.213,1.214h-12a1.214,1.214,0,0,1-1.213-1.214V12.475a1.214,1.214,0,0,1,1.213-1.214h12a1.214,1.214,0,0,1,1.213,1.214Z" fill="#ccd5e5"/>
    <path id="Path_256" data-name="Path 256" d="M15.523,19.155a1.34,1.34,0,0,0-.664,2.506v1.394a.664.664,0,0,0,1.329,0V21.661a1.34,1.34,0,0,0-.664-2.506Z" transform="translate(-2.551 -4.725)" fill="#ccd5e5"/>
  </g>
</svg>
