<svg xmlns="http://www.w3.org/2000/svg" width="22.833" height="23.954" viewBox="0 0 22.833 23.954"><g transform="translate(0.2 0.2)"><path d="M23.629,4.682H21.946a1.682,1.682,0,0,0-3.365,0h-6.73a1.682,1.682,0,0,0-3.365,0H6.8A2.807,2.807,0,0,0,4,7.487V23.75a2.807,2.807,0,0,0,2.8,2.8H23.629a2.807,2.807,0,0,0,2.8-2.8V7.487A2.807,2.807,0,0,0,23.629,4.682Zm-3.926,0a.561.561,0,0,1,1.122,0V5.8a.561.561,0,1,1-1.122,0Zm-10.095,0a.561.561,0,0,1,1.122,0V5.8a.561.561,0,1,1-1.122,0Zm-4.487,2.8A1.685,1.685,0,0,1,6.8,5.8H8.487a1.682,1.682,0,1,0,3.365,0h6.73a1.682,1.682,0,1,0,3.365,0h1.682a1.685,1.685,0,0,1,1.682,1.682V9.73H5.122ZM25.311,23.75a1.685,1.685,0,0,1-1.682,1.682H6.8A1.685,1.685,0,0,1,5.122,23.75v-12.9H25.311Z" transform="translate(-4 -3)" fill="#0969c3" stroke="#0969c3" stroke-width="0.4"/><path d="M11.122,24.926H12.8A1.123,1.123,0,0,0,13.926,23.8V22.122A1.123,1.123,0,0,0,12.8,21H11.122A1.123,1.123,0,0,0,10,22.122V23.8A1.123,1.123,0,0,0,11.122,24.926Zm0-2.8H12.8V23.8H11.122Z" transform="translate(-6.635 -10.905)" fill="#0969c3" stroke="#0969c3" stroke-width="0.4"/><path d="M21.622,24.926H23.3A1.123,1.123,0,0,0,24.426,23.8V22.122A1.123,1.123,0,0,0,23.3,21H21.622A1.123,1.123,0,0,0,20.5,22.122V23.8A1.123,1.123,0,0,0,21.622,24.926Zm0-2.8H23.3V23.8H21.622Z" transform="translate(-11.247 -10.905)" fill="#0969c3" stroke="#0969c3" stroke-width="0.4"/><path d="M32.122,24.926H33.8A1.123,1.123,0,0,0,34.926,23.8V22.122A1.123,1.123,0,0,0,33.8,21H32.122A1.123,1.123,0,0,0,31,22.122V23.8A1.123,1.123,0,0,0,32.122,24.926Zm0-2.8H33.8V23.8H32.122Z" transform="translate(-15.858 -10.905)" fill="#0969c3" stroke="#0969c3" stroke-width="0.4"/><path d="M11.122,35.926H12.8A1.123,1.123,0,0,0,13.926,34.8V33.122A1.123,1.123,0,0,0,12.8,32H11.122A1.123,1.123,0,0,0,10,33.122V34.8A1.123,1.123,0,0,0,11.122,35.926Zm0-2.8H12.8V34.8H11.122Z" transform="translate(-6.635 -15.736)" fill="#0969c3" stroke="#0969c3" stroke-width="0.4"/><path d="M21.622,35.926H23.3A1.123,1.123,0,0,0,24.426,34.8V33.122A1.123,1.123,0,0,0,23.3,32H21.622A1.123,1.123,0,0,0,20.5,33.122V34.8A1.123,1.123,0,0,0,21.622,35.926Zm0-2.8H23.3V34.8H21.622Z" transform="translate(-11.247 -15.736)" fill="#0969c3" stroke="#0969c3" stroke-width="0.4"/><path d="M32.122,35.926H33.8A1.123,1.123,0,0,0,34.926,34.8V33.122A1.123,1.123,0,0,0,33.8,32H32.122A1.123,1.123,0,0,0,31,33.122V34.8A1.123,1.123,0,0,0,32.122,35.926Zm0-2.8H33.8V34.8H32.122Z" transform="translate(-15.858 -15.736)" fill="#0969c3" stroke="#0969c3" stroke-width="0.4"/></g></svg>