<svg xmlns="http://www.w3.org/2000/svg" width="12.3" height="9.593" viewBox="0 0 12.3 9.593">
  <path id="education" d="M12.9,11.12l-5.806-3.1a.193.193,0,0,0-.182,0L1.1,11.12a.193.193,0,0,0,0,.341l1.64.874v2.439h.387V12.542l.581.31v1.176a.767.767,0,0,0-.418,1.215,3.953,3.953,0,0,0-.162,1.111V16.9a.194.194,0,0,0,.107.173l.214.107a1.014,1.014,0,0,0,.907,0l.214-.107a.193.193,0,0,0,.107-.173v-.549a3.953,3.953,0,0,0-.162-1.111A.767.767,0,0,0,4.1,14.028v-.969l2.812,1.5a.195.195,0,0,0,.182,0l3.78-2.016v2.137a6.269,6.269,0,0,1-3.755,1.257H6.884a6.228,6.228,0,0,1-1.953-.314l-.121.368a6.615,6.615,0,0,0,2.073.333h.232a6.657,6.657,0,0,0,4.068-1.4.193.193,0,0,0,.075-.153V12.336l1.64-.874a.194.194,0,0,0,0-.341ZM4.29,16.784l-.107.053a.637.637,0,0,1-.56,0l-.107-.053v-.43a3.566,3.566,0,0,1,.105-.861.75.75,0,0,0,.564,0,3.566,3.566,0,0,1,.105.861Zm0-2.009a.387.387,0,1,1-.387-.387A.387.387,0,0,1,4.29,14.774ZM7,14.168,4.23,12.69l2.4-1.279A.983.983,0,0,0,7,11.484c.434,0,.774-.255.774-.581s-.34-.581-.774-.581-.774.255-.774.581a.469.469,0,0,0,.072.245L3.819,12.471,1.6,11.291,7,8.413l5.4,2.877ZM6.613,10.9c0-.079.151-.194.387-.194s.387.115.387.194S7.236,11.1,7,11.1,6.613,10.982,6.613,10.9Z" transform="translate(-0.85 -7.848)" fill="#0969c3" stroke="#0969c3" stroke-width="0.3"/>
</svg>
