<svg xmlns="http://www.w3.org/2000/svg" width="20.981" height="24.849" viewBox="0 0 20.981 24.849"><path d="M3.334,5.124V19.957a4.129,4.129,0,0,0,4.124,4.124h5.029a.828.828,0,1,0,0-1.657H7.459a2.471,2.471,0,0,1-2.468-2.468V5.124A2.47,2.47,0,0,1,7.459,2.657h10.5a2.47,2.47,0,0,1,2.468,2.468v6.46a.828.828,0,1,0,1.657,0V5.124A4.129,4.129,0,0,0,17.958,1H7.459A4.129,4.129,0,0,0,3.334,5.124Z" transform="translate(-3.334 -1)" fill="#0969c3"/><path d="M9.2,7.619h8.745a.828.828,0,1,0,0-1.657H9.2a.828.828,0,0,0,0,1.657Z" transform="translate(-4.2 -1.852)" fill="#0969c3"/><path d="M18.774,12.1a.828.828,0,0,0-.828-.828H9.2a.828.828,0,0,0,0,1.657h8.745a.828.828,0,0,0,.828-.828Z" transform="translate(-4.2 -2.765)" fill="#0969c3"/><path d="M9.2,16.591a.828.828,0,0,0,0,1.657h3.975a.828.828,0,0,0,0-1.657Z" transform="translate(-4.2 -3.677)" fill="#0969c3"/><path d="M21.969,15.462a2.858,2.858,0,1,0,2.858,2.858,2.858,2.858,0,0,0-2.858-2.858Zm0,4.059a1.2,1.2,0,1,1,1.2-1.2,1.2,1.2,0,0,1-1.2,1.2Z" transform="translate(-6.044 -3.483)" fill="#0969c3"/><path d="M17.286,29.78a.828.828,0,0,0,.828-.828,3.4,3.4,0,1,1,6.8,0,.828.828,0,1,0,1.657,0,5.056,5.056,0,1,0-10.111,0,.828.828,0,0,0,.828.828Z" transform="translate(-5.588 -4.932)" fill="#0969c3"/></svg>