<svg xmlns="http://www.w3.org/2000/svg" width="18" height="18" viewBox="0 0 18 18"><g transform="translate(0 0)"><g transform="translate(0 0)"><path d="M17.44,2.19,15.809.559a1.913,1.913,0,0,0-2.7,0L.97,12.7a.537.537,0,0,0-.146.277l-.816,4.4a.527.527,0,0,0,.615.615l4.4-.816A.537.537,0,0,0,5.3,17.03L17.44,4.894A1.91,1.91,0,0,0,17.44,2.19ZM1.186,16.814l.493-2.664L3.85,16.321Zm3.746-.9L2.089,13.068,12.467,2.689,15.31,5.532ZM16.694,4.148l-.638.638L13.213,1.943l.638-.638a.858.858,0,0,1,1.212,0l1.631,1.631A.856.856,0,0,1,16.694,4.148Z" transform="translate(0 0)" fill="#0969c3"/></g></g></svg>