<svg id="certificate" xmlns="http://www.w3.org/2000/svg" width="18.443" height="21" viewBox="0 0 18.443 21">
  <path id="Path_259" data-name="Path 259" d="M15.9,1H7.5A3.5,3.5,0,0,0,4,4.5V16.4a3.5,3.5,0,0,0,3.5,3.5h7.7V17.722a4.881,4.881,0,0,1,4.2-8.266V4.5A3.5,3.5,0,0,0,15.9,1ZM11.126,16.4H7.5a.7.7,0,1,1,0-1.4h3.626a.7.7,0,0,1,0,1.4Zm.168-3.5H7.5a.7.7,0,1,1,0-1.4h3.794a.7.7,0,1,1,0,1.4Zm2.121-3.5H7.5A.7.7,0,0,1,7.5,8h5.915a.7.7,0,0,1,0,1.4ZM15.9,5.9H7.5a.7.7,0,1,1,0-1.4h8.4a.7.7,0,1,1,0,1.4Z" transform="translate(-4 -1)" fill="#0969c3"/>
  <path id="Path_260" data-name="Path 260" d="M24.1,26.8a4.873,4.873,0,0,1-2.1-.478v2.577a.7.7,0,0,0,1.088.582L24.1,28.8l1.011.675a.7.7,0,0,0,1.088-.582V26.317A4.873,4.873,0,0,1,24.1,26.8Z" transform="translate(-9.4 -8.595)" fill="#0969c3"/>
  <circle id="Ellipse_65" data-name="Ellipse 65" cx="3.5" cy="3.5" r="3.5" transform="translate(11.443 10)" fill="#0969c3"/>
</svg>
