<svg xmlns="http://www.w3.org/2000/svg" width="51.035" height="32.472" viewBox="0 0 51.035 32.472"><g transform="translate(0)"><path d="M25.477,235.045a1.606,1.606,0,0,0-1.477.874l-9.093,18.791a1.662,1.662,0,0,0,1.871,2.265l8.035-2.143a2.576,2.576,0,0,1,1.328,0l8.035,2.143a1.662,1.662,0,0,0,1.871-2.265l-9.093-18.791a1.606,1.606,0,0,0-1.477-.874Z" transform="translate(0.04 -224.554)" fill="#fff" fill-rule="evenodd"/><path d="M26.357,226a2.917,2.917,0,0,0-2.9,2.9H8.758a3.48,3.48,0,1,0,0,2.32h9.786A18.56,18.56,0,0,0,9,246.3H8.959a2.917,2.917,0,0,0-2.9,2.9v2.32a2.917,2.917,0,0,0,2.9,2.9h2.32a2.917,2.917,0,0,0,2.9-2.9V249.2a2.917,2.917,0,0,0-2.854-2.9A16.228,16.228,0,0,1,23.5,231.725a2.921,2.921,0,0,0,2.854,2.395h2.32a2.921,2.921,0,0,0,2.854-2.395A16.228,16.228,0,0,1,43.71,246.3a2.917,2.917,0,0,0-2.854,2.9v2.32a2.917,2.917,0,0,0,2.9,2.9h2.32a2.917,2.917,0,0,0,2.9-2.9V249.2a2.917,2.917,0,0,0-2.9-2.9h-.041a18.56,18.56,0,0,0-9.544-15.078h9.786a3.48,3.48,0,1,0,0-2.32h-14.7a2.917,2.917,0,0,0-2.9-2.9Zm0,2.32h2.32a.563.563,0,0,1,.58.58v2.32a.563.563,0,0,1-.58.58h-2.32a.563.563,0,0,1-.58-.58V228.9A.563.563,0,0,1,26.357,228.32Z" transform="translate(-2 -226)" fill="#fff"/></g></svg>