<svg xmlns="http://www.w3.org/2000/svg" width="28.336" height="20.875" viewBox="0 0 28.336 20.875">
  <g id="Group_259" data-name="Group 259" transform="translate(0 -57.088)">
    <g id="Group_256" data-name="Group 256" transform="translate(0 62.976)">
      <g id="Group_255" data-name="Group 255" transform="translate(0 0)">
        <path id="Path_339" data-name="Path 339" d="M14.988,155.329a1.611,1.611,0,0,1-1.673,0L0,147.2v10.806a4.183,4.183,0,0,0,4.182,4.182H24.154a4.183,4.183,0,0,0,4.182-4.182V147.2Z" transform="translate(0 -147.2)" fill="#72d18b"/>
      </g>
    </g>
    <g id="Group_258" data-name="Group 258" transform="translate(0.134 57.088)">
      <g id="Group_257" data-name="Group 257" transform="translate(0 0)">
        <path id="Path_340" data-name="Path 340" d="M26.068,57.088H6.1a4.157,4.157,0,0,0-4.048,3.279L16.1,68.931l14.017-8.564A4.157,4.157,0,0,0,26.068,57.088Z" transform="translate(-2.048 -57.088)" fill="#72d18b"/>
      </g>
    </g>
  </g>
</svg>
