<svg xmlns="http://www.w3.org/2000/svg" width="36.124" height="36.124" viewBox="0 0 36.124 36.124">
  <g id="headhunting" transform="translate(0)">
    <path id="Path_345" data-name="Path 345" d="M35.066,17H33.972A15.945,15.945,0,0,0,19.121,2.152V1.058a1.058,1.058,0,0,0-2.117,0V2.152A15.945,15.945,0,0,0,2.152,17H1.058a1.058,1.058,0,0,0,0,2.117H2.152A15.945,15.945,0,0,0,17,33.972v1.094a1.058,1.058,0,1,0,2.117,0V33.972A15.945,15.945,0,0,0,33.972,19.121h1.094a1.058,1.058,0,0,0,0-2.117Zm-4.233,2.117h1.018a13.851,13.851,0,0,1-12.73,12.73V30.833a1.058,1.058,0,1,0-2.117,0v1.018a13.851,13.851,0,0,1-12.73-12.73H5.292a1.058,1.058,0,0,0,0-2.117H4.273A13.851,13.851,0,0,1,17,4.273V5.292a1.058,1.058,0,1,0,2.117,0V4.273A13.851,13.851,0,0,1,31.851,17H30.833a1.058,1.058,0,1,0,0,2.117Z" transform="translate(0 0)" fill="#fff"/>
    <circle id="Ellipse_166" data-name="Ellipse 166" cx="4.405" cy="4.405" r="4.405" transform="translate(13.657 8.37)" fill="#fff"/>
    <path id="Path_346" data-name="Path 346" d="M153.833,253.4a6.691,6.691,0,0,1-9.438,0A6.707,6.707,0,0,0,141,259.227v1.411a1.058,1.058,0,0,0,1.058,1.058h14.111a1.058,1.058,0,0,0,1.058-1.058v-1.411A6.707,6.707,0,0,0,153.833,253.4Z" transform="translate(-131.052 -235.52)" fill="#fff"/>
  </g>
</svg>
