<svg xmlns="http://www.w3.org/2000/svg" width="34.702" height="30.5" viewBox="0 0 34.702 30.5">
  <path id="portfolio_1_" data-name="portfolio (1)" d="M33.692,4.067H24.468V3.05A3.054,3.054,0,0,0,21.418,0H13.285a3.054,3.054,0,0,0-3.05,3.05V4.067H1.017A1.019,1.019,0,0,0,0,5.083V27.45A3.054,3.054,0,0,0,3.05,30.5h28.6a3.054,3.054,0,0,0,3.05-3.05V5.1a.987.987,0,0,0-1.01-1.034ZM12.268,3.05a1.018,1.018,0,0,1,1.017-1.017h8.133A1.018,1.018,0,0,1,22.435,3.05V4.067H12.268ZM32.275,6.1l-3.157,9.471a1.015,1.015,0,0,1-.964.7H22.435V15.25a1.017,1.017,0,0,0-1.017-1.017H13.285a1.017,1.017,0,0,0-1.017,1.017v1.017H6.549a1.015,1.015,0,0,1-.964-.7L2.428,6.1ZM20.4,16.267V18.3H14.3V16.267ZM32.669,27.45a1.018,1.018,0,0,1-1.017,1.017H3.05A1.018,1.018,0,0,1,2.034,27.45v-16.1l1.622,4.866A3.046,3.046,0,0,0,6.549,18.3h5.719v1.017a1.017,1.017,0,0,0,1.017,1.017h8.133a1.017,1.017,0,0,0,1.017-1.017V18.3h5.719a3.046,3.046,0,0,0,2.893-2.085l1.622-4.866Zm0,0" transform="translate(0)" fill="#fff"/>
</svg>
