<svg xmlns="http://www.w3.org/2000/svg" width="35.507" height="31.309" viewBox="0 0 35.507 31.309">
  <g id="Group_272" data-name="Group 272" transform="translate(-299.747 -5025.846)">
    <path id="Path_245" data-name="Path 245" d="M14.264,13.545a1.707,1.707,0,0,0,.859-2.291L13.72,8.3a1.712,1.712,0,0,0-2.234-.83A19.734,19.734,0,0,0,5.3,11.483a14.966,14.966,0,0,0-4.153,6.559A35.974,35.974,0,0,0,0,28.124v8.794a1.724,1.724,0,0,0,1.719,1.719H12.976a1.724,1.724,0,0,0,1.719-1.719V25.661a1.723,1.723,0,0,0-1.719-1.719H7.591A12.077,12.077,0,0,1,9.6,16.982,10.887,10.887,0,0,1,14.264,13.545Z" transform="translate(299.747 5018.518)" fill="#fff"/>
    <path id="Path_246" data-name="Path 246" d="M84.936,13.617a1.708,1.708,0,0,0,.859-2.291L84.392,8.4a1.713,1.713,0,0,0-2.234-.831A20.749,20.749,0,0,0,76,11.555a15.287,15.287,0,0,0-4.182,6.588A35.491,35.491,0,0,0,70.7,28.2V36.99a1.724,1.724,0,0,0,1.719,1.719H83.676a1.724,1.724,0,0,0,1.719-1.719V25.733a1.723,1.723,0,0,0-1.719-1.719H78.262a12.079,12.079,0,0,1,2.005-6.961A10.885,10.885,0,0,1,84.936,13.617Z" transform="translate(249.298 5018.446)" fill="#fff"/>
  </g>
</svg>
