<svg xmlns="http://www.w3.org/2000/svg" xmlns:xlink="http://www.w3.org/1999/xlink" width="375" height="130" viewBox="0 0 375 130"><defs><clipPath id="a"><rect width="375" height="130" transform="translate(0 1516)" fill="none"/></clipPath></defs><g transform="translate(0 -1516)"><rect width="375" height="130" transform="translate(0 1516)" fill="#0969c3"/><g clip-path="url(#a)"><circle cx="22" cy="22" r="22" transform="translate(308 1624)" fill="#fff" opacity="0.23"/><ellipse cx="22.5" cy="22" rx="22.5" ry="22" transform="translate(27 1494)" fill="#fff" opacity="0.23"/><g transform="translate(-17 1572)" fill="none" stroke="#fff" stroke-width="3"><ellipse cx="16.5" cy="17" rx="16.5" ry="17" stroke="none"/><ellipse cx="16.5" cy="17" rx="15" ry="15.5" fill="none"/></g><g transform="translate(359 1543)" fill="none" stroke="#fff" stroke-width="3"><ellipse cx="16.5" cy="17" rx="16.5" ry="17" stroke="none"/><ellipse cx="16.5" cy="17" rx="15" ry="15.5" fill="none"/></g><circle cx="16" cy="16" r="16" transform="translate(314 1630)" fill="#fff" opacity="0.23"/><circle cx="16" cy="16" r="16" transform="translate(34 1500)" fill="#fff" opacity="0.23"/></g><g transform="translate(12 1611)" fill="none" stroke="#fff" stroke-width="3"><circle cx="6.5" cy="6.5" r="6.5" stroke="none"/><circle cx="6.5" cy="6.5" r="5" fill="none"/></g><g transform="translate(344 1526)" fill="none" stroke="#fff" stroke-width="3"><circle cx="6.5" cy="6.5" r="6.5" stroke="none"/><circle cx="6.5" cy="6.5" r="5" fill="none"/></g></g></svg>