<svg xmlns="http://www.w3.org/2000/svg" width="143.566" height="59.5" viewBox="0 0 143.566 59.5">
  <g id="Group_170" data-name="Group 170" transform="translate(-114.356 -186.383)">
    <g id="Group_164" data-name="Group 164" transform="translate(138.213 225.451)">
      <path id="Path_261" data-name="Path 261" d="M168.437,272.643a10.212,10.212,0,0,1-.41,2.986,6.311,6.311,0,0,1-1.238,2.307,5.561,5.561,0,0,1-2.078,1.492,7.491,7.491,0,0,1-2.946.532,14.071,14.071,0,0,1-1.513-.081,12.82,12.82,0,0,1-1.554-.269l.242-2.65a.857.857,0,0,1,.282-.564,1,1,0,0,1,.686-.216,2.7,2.7,0,0,1,.565.074,3.8,3.8,0,0,0,.807.074,3.327,3.327,0,0,0,1.15-.182,1.782,1.782,0,0,0,.813-.605,2.92,2.92,0,0,0,.484-1.11,7.533,7.533,0,0,0,.161-1.695v-12.59h4.546Z" transform="translate(-158.699 -259.528)" fill="#34a853"/>
      <path id="Path_262" data-name="Path 262" d="M187.655,270.247a8.067,8.067,0,0,1,2.892.5,6.346,6.346,0,0,1,2.239,1.426,6.424,6.424,0,0,1,1.453,2.253,8.122,8.122,0,0,1,.518,2.979,8.271,8.271,0,0,1-.518,3.007,6.462,6.462,0,0,1-1.453,2.273,6.364,6.364,0,0,1-2.239,1.44,7.962,7.962,0,0,1-2.892.5,8.054,8.054,0,0,1-2.912-.5,6.488,6.488,0,0,1-2.26-1.44,6.373,6.373,0,0,1-1.466-2.273,8.272,8.272,0,0,1-.518-3.007,8.122,8.122,0,0,1,.518-2.979,6.336,6.336,0,0,1,1.466-2.253,6.471,6.471,0,0,1,2.26-1.426A8.16,8.16,0,0,1,187.655,270.247Zm0,11.285a2.367,2.367,0,0,0,2.118-1.016,7.336,7.336,0,0,0,0-6.167,2.373,2.373,0,0,0-2.118-1.009,2.434,2.434,0,0,0-2.166,1.009,7.279,7.279,0,0,0,0,6.167A2.427,2.427,0,0,0,187.655,281.533Z" transform="translate(-168.77 -264.194)" fill="#34a853"/>
      <path id="Path_263" data-name="Path 263" d="M215.068,266.814a6.946,6.946,0,0,1,1.769-1.231,4.879,4.879,0,0,1,2.145-.464,4.649,4.649,0,0,1,3.807,1.863,6.518,6.518,0,0,1,1.056,2.159,10.052,10.052,0,0,1,.37,2.825,10.359,10.359,0,0,1-.43,3.08,7.2,7.2,0,0,1-1.218,2.374,5.551,5.551,0,0,1-1.876,1.534,5.308,5.308,0,0,1-2.408.545,4.8,4.8,0,0,1-1.13-.122,3.862,3.862,0,0,1-.915-.343,3.753,3.753,0,0,1-.76-.531,8.542,8.542,0,0,1-.666-.673l-.148.7a.954.954,0,0,1-.349.592,1.146,1.146,0,0,1-.646.161H210.9V259.147h4.17Zm0,8.676a2.76,2.76,0,0,0,1.022.726,3.045,3.045,0,0,0,1.117.215,2.636,2.636,0,0,0,1.089-.222,2.082,2.082,0,0,0,.854-.726,3.912,3.912,0,0,0,.558-1.332,10.375,10.375,0,0,0,.047-3.82,3.515,3.515,0,0,0-.457-1.2,1.8,1.8,0,0,0-.753-.672,2.42,2.42,0,0,0-1.029-.209,2.556,2.556,0,0,0-1.331.336,4.606,4.606,0,0,0-1.117.982Z" transform="translate(-182.814 -259.066)" fill="#34a853"/>
      <path id="Path_264" data-name="Path 264" d="M244.371,263.644v4.963h6.7v3.511h-6.7v7.626H239.8v-19.6h12.617v3.5Z" transform="translate(-196.165 -259.528)" fill="#fff"/>
      <path id="Path_265" data-name="Path 265" d="M271.629,261.445a2.205,2.205,0,0,1-.2.935,2.463,2.463,0,0,1-.552.767,2.711,2.711,0,0,1-.814.525,2.522,2.522,0,0,1-.988.195,2.344,2.344,0,0,1-.955-.195,2.7,2.7,0,0,1-.787-.525,2.427,2.427,0,0,1-.538-.767,2.276,2.276,0,0,1-.195-.935,2.356,2.356,0,0,1,.195-.955,2.491,2.491,0,0,1,.538-.78,2.528,2.528,0,0,1,.787-.524,2.413,2.413,0,0,1,.955-.189,2.6,2.6,0,0,1,.988.189,2.523,2.523,0,0,1,1.366,1.3A2.282,2.282,0,0,1,271.629,261.445Zm-.431,3.82v13.948h-4.17V265.265Z" transform="translate(-208.546 -258.997)" fill="#fff"/>
      <path id="Path_266" data-name="Path 266" d="M284.419,271.969a10.119,10.119,0,0,1,.833-.7,4.884,4.884,0,0,1,.922-.545,5.486,5.486,0,0,1,1.063-.35,5.706,5.706,0,0,1,1.244-.128,4.893,4.893,0,0,1,2.025.4,4.216,4.216,0,0,1,1.487,1.1,4.755,4.755,0,0,1,.914,1.681,6.962,6.962,0,0,1,.309,2.119v8.863h-4.17v-8.863a2.441,2.441,0,0,0-.471-1.594,1.691,1.691,0,0,0-1.385-.572,2.923,2.923,0,0,0-1.284.289,5.21,5.21,0,0,0-1.164.787v9.953h-4.17V270.462h2.583a.98.98,0,0,1,1.022.7Z" transform="translate(-215.002 -264.194)" fill="#fff"/>
      <path id="Path_267" data-name="Path 267" d="M321.113,259.147v20.135h-2.582a.98.98,0,0,1-1.022-.7l-.323-1.063a8.137,8.137,0,0,1-.874.807,5.5,5.5,0,0,1-.989.626,5.218,5.218,0,0,1-1.143.4,5.885,5.885,0,0,1-1.325.142,4.3,4.3,0,0,1-2.018-.485,4.652,4.652,0,0,1-1.6-1.4,7.061,7.061,0,0,1-1.056-2.24,10.859,10.859,0,0,1-.384-3.02,9.409,9.409,0,0,1,.43-2.9,7.114,7.114,0,0,1,1.217-2.314,5.658,5.658,0,0,1,1.89-1.527,5.367,5.367,0,0,1,2.435-.552,4.746,4.746,0,0,1,1.829.31,4.947,4.947,0,0,1,1.345.833v-7.061Zm-4.17,9.927a2.637,2.637,0,0,0-1.022-.734,3.257,3.257,0,0,0-1.157-.208,2.459,2.459,0,0,0-1.063.228,2.166,2.166,0,0,0-.84.733,3.9,3.9,0,0,0-.558,1.311,8.153,8.153,0,0,0-.2,1.95,9.03,9.03,0,0,0,.161,1.856,3.813,3.813,0,0,0,.451,1.217,1.75,1.75,0,0,0,.692.666,1.987,1.987,0,0,0,.9.2,3.558,3.558,0,0,0,.828-.088,2.858,2.858,0,0,0,.679-.249,2.829,2.829,0,0,0,.585-.41,5.548,5.548,0,0,0,.545-.572Z" transform="translate(-227.579 -259.066)" fill="#fff"/>
      <path id="Path_268" data-name="Path 268" d="M340.592,278.183a3.935,3.935,0,0,0,1.062,2.536,3.162,3.162,0,0,0,2.219.786,3.984,3.984,0,0,0,1.251-.174,6.3,6.3,0,0,0,.935-.391q.411-.216.753-.39a1.568,1.568,0,0,1,.72-.175.862.862,0,0,1,.753.363l1.211,1.493a6.2,6.2,0,0,1-1.392,1.2,7.212,7.212,0,0,1-1.534.726,8.269,8.269,0,0,1-1.574.364,11.8,11.8,0,0,1-1.5.1,7.841,7.841,0,0,1-2.751-.478,6.323,6.323,0,0,1-2.246-1.419,6.693,6.693,0,0,1-1.52-2.34,8.756,8.756,0,0,1-.558-3.256,7.362,7.362,0,0,1,.478-2.65,6.433,6.433,0,0,1,3.537-3.685,7.72,7.72,0,0,1,5.407-.121,5.516,5.516,0,0,1,1.977,1.251,5.708,5.708,0,0,1,1.292,2.011,7.394,7.394,0,0,1,.464,2.7,5.88,5.88,0,0,1-.04.767,1.2,1.2,0,0,1-.148.471.559.559,0,0,1-.289.242,1.343,1.343,0,0,1-.464.067Zm5.246-2.421a3.693,3.693,0,0,0-.127-.968,2.361,2.361,0,0,0-.418-.84,2.126,2.126,0,0,0-.76-.6,2.6,2.6,0,0,0-1.143-.228,2.5,2.5,0,0,0-1.856.678,3.539,3.539,0,0,0-.888,1.957Z" transform="translate(-240.803 -264.194)" fill="#fff"/>
      <path id="Path_269" data-name="Path 269" d="M368.647,272.568a5.852,5.852,0,0,1,1.487-1.775,3.078,3.078,0,0,1,1.93-.646,2.484,2.484,0,0,1,1.533.444l-.269,3.066a.644.644,0,0,1-.222.4.727.727,0,0,1-.423.108q-.108,0-.283-.013t-.363-.034l-.383-.04a3.51,3.51,0,0,0-.357-.02,2.118,2.118,0,0,0-1.459.484,3.807,3.807,0,0,0-.922,1.345v8.474h-4.17V270.416h2.475a2.133,2.133,0,0,1,.518.054.917.917,0,0,1,.35.168.71.71,0,0,1,.215.3,2.715,2.715,0,0,1,.128.458Z" transform="translate(-253.888 -264.148)" fill="#fff"/>
    </g>
    <g id="Logo" transform="translate(114.356 186.383)">
      <path id="Lup" d="M158.989,188.079l-1.93,5.38a12.391,12.391,0,1,1-7.452,0l-1.93-5.38a18.089,18.089,0,0,0-8.419,28.578h0l-8.167,8.167a1.907,1.907,0,0,0-2.7,0l-13.48,13.48a1.907,1.907,0,0,0,0,2.7l2.7,2.7a1.906,1.906,0,0,0,2.7,0l13.48-13.48a1.906,1.906,0,0,0,0-2.7l8.167-8.167a18.1,18.1,0,1,0,17.035-31.274Z" transform="translate(-114.356 -187.167)" fill="#fff"/>
      <path id="Tied" d="M185.433,192.1l1.905-5.312a18.038,18.038,0,0,0-7.624,0l1.906,5.312-1.906,19.064,3.812,3.813,3.813-3.813Z" transform="translate(-144.55 -186.383)" fill="#34a853"/>
    </g>
  </g>
</svg>
