<svg xmlns="http://www.w3.org/2000/svg" width="94.102" height="39" viewBox="0 0 94.102 39">
  <g id="Group_177" data-name="Group 177" transform="translate(-165 -20)">
    <g id="Group_165" data-name="Group 165" transform="translate(165 20)">
      <g id="Group_164" data-name="Group 164" transform="translate(15.638 25.608)">
        <path id="Path_261" data-name="Path 261" d="M165.082,268.337a6.694,6.694,0,0,1-.269,1.957,4.138,4.138,0,0,1-.811,1.512,3.645,3.645,0,0,1-1.362.978,4.91,4.91,0,0,1-1.931.349,9.223,9.223,0,0,1-.992-.053,8.4,8.4,0,0,1-1.018-.176l.159-1.737a.562.562,0,0,1,.185-.37.654.654,0,0,1,.45-.141,1.769,1.769,0,0,1,.37.049,2.487,2.487,0,0,0,.529.049,2.18,2.18,0,0,0,.754-.119,1.168,1.168,0,0,0,.533-.4,1.915,1.915,0,0,0,.317-.728,4.939,4.939,0,0,0,.106-1.111v-8.252h2.98Z" transform="translate(-158.699 -259.741)" fill="#34a853"/>
        <path id="Path_262" data-name="Path 262" d="M185.189,270.247a5.287,5.287,0,0,1,1.9.326,4.159,4.159,0,0,1,1.468.935,4.211,4.211,0,0,1,.952,1.477,5.323,5.323,0,0,1,.34,1.953,5.421,5.421,0,0,1-.34,1.971,4.236,4.236,0,0,1-.952,1.49,4.17,4.17,0,0,1-1.468.944,5.219,5.219,0,0,1-1.9.331,5.279,5.279,0,0,1-1.909-.331,4.252,4.252,0,0,1-1.481-.944,4.177,4.177,0,0,1-.961-1.49,5.421,5.421,0,0,1-.339-1.971,5.323,5.323,0,0,1,.339-1.953,4.153,4.153,0,0,1,.961-1.477,4.241,4.241,0,0,1,1.481-.935A5.349,5.349,0,0,1,185.189,270.247Zm0,7.4a1.551,1.551,0,0,0,1.388-.666,4.809,4.809,0,0,0,0-4.042,1.555,1.555,0,0,0-1.388-.661,1.6,1.6,0,0,0-1.42.661,4.771,4.771,0,0,0,0,4.042A1.591,1.591,0,0,0,185.189,277.644Z" transform="translate(-172.811 -266.28)" fill="#34a853"/>
        <path id="Path_263" data-name="Path 263" d="M213.631,264.172a4.554,4.554,0,0,1,1.16-.807,3.2,3.2,0,0,1,1.406-.3,3.047,3.047,0,0,1,2.5,1.221,4.273,4.273,0,0,1,.692,1.415,6.587,6.587,0,0,1,.242,1.851,6.79,6.79,0,0,1-.282,2.019,4.716,4.716,0,0,1-.8,1.556,3.638,3.638,0,0,1-1.23,1.005,3.479,3.479,0,0,1-1.578.357,3.146,3.146,0,0,1-.741-.08,2.53,2.53,0,0,1-.6-.225,2.459,2.459,0,0,1-.5-.348,5.6,5.6,0,0,1-.437-.441l-.1.459a.625.625,0,0,1-.229.388.751.751,0,0,1-.424.106H210.9v-13.2h2.733Zm0,5.687a1.81,1.81,0,0,0,.67.476,2,2,0,0,0,.732.141,1.727,1.727,0,0,0,.714-.146,1.364,1.364,0,0,0,.56-.476,2.564,2.564,0,0,0,.366-.873,6.8,6.8,0,0,0,.031-2.5,2.3,2.3,0,0,0-.3-.785,1.18,1.18,0,0,0-.494-.441,1.587,1.587,0,0,0-.675-.137,1.676,1.676,0,0,0-.872.22,3.02,3.02,0,0,0-.732.644Z" transform="translate(-192.49 -259.094)" fill="#34a853"/>
        <path id="Path_264" data-name="Path 264" d="M242.8,262.439v3.253h4.391v2.3H242.8v5h-3V260.147h8.27v2.292Z" transform="translate(-211.198 -259.741)" fill="#fff"/>
        <path id="Path_265" data-name="Path 265" d="M269.9,260.6a1.445,1.445,0,0,1-.132.613,1.615,1.615,0,0,1-.361.5,1.778,1.778,0,0,1-.534.344,1.653,1.653,0,0,1-.648.128,1.537,1.537,0,0,1-.626-.128,1.77,1.77,0,0,1-.516-.344,1.59,1.59,0,0,1-.353-.5,1.491,1.491,0,0,1-.128-.613,1.543,1.543,0,0,1,.128-.626,1.632,1.632,0,0,1,.353-.511,1.658,1.658,0,0,1,.516-.343,1.581,1.581,0,0,1,.626-.124,1.7,1.7,0,0,1,.648.124,1.654,1.654,0,0,1,.9.855A1.5,1.5,0,0,1,269.9,260.6Zm-.282,2.5v9.143H266.88v-9.143Z" transform="translate(-228.547 -258.997)" fill="#fff"/>
        <path id="Path_266" data-name="Path 266" d="M283.094,271.376a6.632,6.632,0,0,1,.546-.458,3.2,3.2,0,0,1,.6-.357,3.592,3.592,0,0,1,.7-.23,3.739,3.739,0,0,1,.815-.084,3.207,3.207,0,0,1,1.327.26,2.762,2.762,0,0,1,.974.723,3.116,3.116,0,0,1,.6,1.1,4.562,4.562,0,0,1,.2,1.389v5.81h-2.733v-5.81a1.6,1.6,0,0,0-.309-1.045,1.108,1.108,0,0,0-.908-.375,1.916,1.916,0,0,0-.842.189,3.415,3.415,0,0,0-.763.516v6.524h-2.733v-9.143h1.693a.643.643,0,0,1,.67.458Z" transform="translate(-237.593 -266.28)" fill="#fff"/>
        <path id="Path_267" data-name="Path 267" d="M316.525,259.147v13.2h-1.693a.643.643,0,0,1-.67-.458l-.212-.7a5.324,5.324,0,0,1-.573.529,3.6,3.6,0,0,1-.648.41,3.421,3.421,0,0,1-.749.264,3.857,3.857,0,0,1-.868.093,2.816,2.816,0,0,1-1.322-.318,3.049,3.049,0,0,1-1.049-.917,4.629,4.629,0,0,1-.692-1.468,7.118,7.118,0,0,1-.251-1.979,6.167,6.167,0,0,1,.282-1.9,4.662,4.662,0,0,1,.8-1.516,3.708,3.708,0,0,1,1.239-1,3.518,3.518,0,0,1,1.6-.361,3.112,3.112,0,0,1,1.2.2,3.242,3.242,0,0,1,.882.546v-4.629Zm-2.733,6.507a1.729,1.729,0,0,0-.67-.481,2.135,2.135,0,0,0-.758-.136,1.612,1.612,0,0,0-.7.15,1.42,1.42,0,0,0-.551.481,2.557,2.557,0,0,0-.366.859,5.343,5.343,0,0,0-.132,1.278,5.918,5.918,0,0,0,.106,1.217,2.5,2.5,0,0,0,.3.8,1.148,1.148,0,0,0,.454.436,1.3,1.3,0,0,0,.591.132,2.332,2.332,0,0,0,.542-.057,1.813,1.813,0,0,0,.828-.432,3.629,3.629,0,0,0,.357-.375Z" transform="translate(-255.217 -259.094)" fill="#fff"/>
        <path id="Path_268" data-name="Path 268" d="M339.155,275.449a2.579,2.579,0,0,0,.7,1.662,2.073,2.073,0,0,0,1.455.516,2.612,2.612,0,0,0,.82-.114,4.127,4.127,0,0,0,.613-.256q.269-.141.494-.256a1.028,1.028,0,0,1,.472-.115.565.565,0,0,1,.494.238l.793.979a4.059,4.059,0,0,1-.912.789,4.725,4.725,0,0,1-1.005.476,5.42,5.42,0,0,1-1.031.238,7.734,7.734,0,0,1-.983.066,5.139,5.139,0,0,1-1.8-.313,4.143,4.143,0,0,1-1.472-.93,4.386,4.386,0,0,1-1-1.534,5.739,5.739,0,0,1-.366-2.134,4.826,4.826,0,0,1,.313-1.737,4.216,4.216,0,0,1,2.319-2.416,5.06,5.06,0,0,1,3.544-.079,3.616,3.616,0,0,1,1.3.82,3.742,3.742,0,0,1,.847,1.318,4.847,4.847,0,0,1,.3,1.768,3.857,3.857,0,0,1-.026.5.79.79,0,0,1-.1.309.366.366,0,0,1-.189.159.88.88,0,0,1-.3.044Zm3.438-1.587a2.42,2.42,0,0,0-.084-.635,1.548,1.548,0,0,0-.274-.551,1.394,1.394,0,0,0-.5-.392,1.707,1.707,0,0,0-.749-.15,1.636,1.636,0,0,0-1.217.445,2.32,2.32,0,0,0-.582,1.283Z" transform="translate(-273.747 -266.28)" fill="#fff"/>
        <path id="Path_269" data-name="Path 269" d="M367.3,271.734a3.835,3.835,0,0,1,.974-1.163,2.018,2.018,0,0,1,1.265-.424,1.628,1.628,0,0,1,1.005.291l-.176,2.01a.422.422,0,0,1-.146.264.477.477,0,0,1-.278.071q-.071,0-.185-.008t-.238-.022l-.251-.026a2.3,2.3,0,0,0-.234-.013,1.388,1.388,0,0,0-.956.317,2.5,2.5,0,0,0-.6.882v5.554h-2.733v-9.143h1.622a1.4,1.4,0,0,1,.34.035.6.6,0,0,1,.229.11.466.466,0,0,1,.141.2,1.781,1.781,0,0,1,.084.3Z" transform="translate(-292.083 -266.215)" fill="#fff"/>
      </g>
      <g id="Logo" transform="translate(0)">
        <path id="Lup" d="M143.611,188.079l-1.265,3.527a8.122,8.122,0,1,1-4.885,0l-1.265-3.527a11.857,11.857,0,0,0-5.519,18.732h0l-5.353,5.353a1.25,1.25,0,0,0-1.767,0L114.722,221a1.25,1.25,0,0,0,0,1.767l1.767,1.767a1.249,1.249,0,0,0,1.767,0l8.836-8.836a1.249,1.249,0,0,0,0-1.767l5.353-5.353a11.866,11.866,0,1,0,11.166-20.5Z" transform="translate(-114.356 -187.481)" fill="#fff"/>
        <path id="Tied" d="M183.463,190.132l1.249-3.482a11.824,11.824,0,0,0-5,0l1.249,3.482-1.249,12.5,2.5,2.5,2.5-2.5Z" transform="translate(-156.665 -186.383)" fill="#34a853"/>
      </g>
    </g>
  </g>
</svg>
