<svg id="_01_align_center" data-name="01 align center" xmlns="http://www.w3.org/2000/svg" width="14" height="13.056" viewBox="0 0 14 13.056">
  <path id="Path_230" data-name="Path 230" d="M10.2.917A3.732,3.732,0,0,0,7,2.841,3.732,3.732,0,0,0,3.788.917,3.965,3.965,0,0,0,0,5.028c0,3.951,6.389,8.513,6.66,8.707L7,13.973l.337-.238c.272-.192,6.66-4.756,6.66-8.707A3.965,3.965,0,0,0,10.2.917ZM7,12.538c-1.9-1.417-5.831-4.9-5.831-7.51A2.8,2.8,0,0,1,3.788,2.083,2.8,2.8,0,0,1,6.412,5.028H7.578A2.8,2.8,0,0,1,10.2,2.083a2.8,2.8,0,0,1,2.624,2.945C12.826,7.641,8.892,11.121,7,12.538Z" transform="translate(0.005 -0.917)" fill="#7185ac"/>
</svg>
