<svg xmlns="http://www.w3.org/2000/svg" width="12.14" height="11.5" viewBox="0 0 12.14 11.5">
  <path id="briefcase_1_" data-name="briefcase (1)" d="M15.49,7.763H12.848V6.669a1.194,1.194,0,0,0-1.192-1.192H8.485A1.194,1.194,0,0,0,7.293,6.669V7.763H4.65a.651.651,0,0,0-.65.65v7.7a.868.868,0,0,0,.867.867H15.273a.868.868,0,0,0,.867-.867v-7.7A.651.651,0,0,0,15.49,7.763ZM7.726,6.669a.76.76,0,0,1,.759-.759h3.171a.76.76,0,0,1,.759.759V7.763h-.42V6.791a.461.461,0,0,0-.461-.461H8.607a.461.461,0,0,0-.461.461v.972h-.42Zm3.834.122v.972H8.58V6.791a.027.027,0,0,1,.027-.027h2.927A.027.027,0,0,1,11.561,6.791Zm4.146,9.319a.434.434,0,0,1-.434.434H4.867a.434.434,0,0,1-.434-.434V10.3a4.12,4.12,0,0,0,3.685,2.291s1.085,0,1.084,0a.651.651,0,0,0,.65.65h.434a.651.651,0,0,0,.65-.651h1.084A4.12,4.12,0,0,0,15.707,10.3Zm-6.07-3.523v-.434a.217.217,0,0,1,.217-.217h.434a.217.217,0,0,1,.217.217v.434a.217.217,0,0,1-.217.217H9.853A.217.217,0,0,1,9.637,12.587Zm6.07-4.12a3.69,3.69,0,0,1-3.685,3.685H10.937a.651.651,0,0,0-.65-.65H9.853a.651.651,0,0,0-.65.65H8.119A3.691,3.691,0,0,1,4.434,8.413.217.217,0,0,1,4.65,8.2H15.49a.217.217,0,0,1,.217.217Z" transform="translate(-4 -5.477)" fill="#96a0b4"/>
</svg>
