<svg id="g525521" xmlns="http://www.w3.org/2000/svg" width="42.435" height="27" viewBox="0 0 42.435 27">
  <path id="path643803" d="M23.671,235.045a1.336,1.336,0,0,0-1.228.727L14.882,251.4a1.382,1.382,0,0,0,1.556,1.884L23.12,251.5a2.142,2.142,0,0,1,1.1,0l6.681,1.782a1.382,1.382,0,0,0,1.556-1.884L24.9,235.772a1.336,1.336,0,0,0-1.228-.727Z" transform="translate(-2.454 -226.322)" fill="#0969c3" fill-rule="evenodd"/>
  <path id="path525439" d="M22.253,226a2.426,2.426,0,0,0-2.411,2.411H7.619a2.893,2.893,0,1,0,0,1.929h8.137a15.433,15.433,0,0,0-7.936,12.538H7.787a2.426,2.426,0,0,0-2.411,2.411v1.929a2.426,2.426,0,0,0,2.411,2.411H9.716a2.426,2.426,0,0,0,2.411-2.411v-1.929a2.425,2.425,0,0,0-2.373-2.409A13.494,13.494,0,0,1,19.88,230.76a2.429,2.429,0,0,0,2.373,1.991h1.929a2.429,2.429,0,0,0,2.373-1.991,13.494,13.494,0,0,1,10.127,12.12,2.425,2.425,0,0,0-2.373,2.409v1.929a2.426,2.426,0,0,0,2.411,2.411h1.929a2.426,2.426,0,0,0,2.411-2.411v-1.929a2.426,2.426,0,0,0-2.411-2.411h-.034a15.433,15.433,0,0,0-7.936-12.538h8.137a2.893,2.893,0,1,0,0-1.929H26.593A2.426,2.426,0,0,0,24.182,226Zm0,1.929h1.929a.468.468,0,0,1,.482.482v1.929a.468.468,0,0,1-.482.482H22.253a.468.468,0,0,1-.482-.482v-1.929A.468.468,0,0,1,22.253,227.929Z" transform="translate(-2 -226)" fill="#0969c3"/>
</svg>
