<svg xmlns="http://www.w3.org/2000/svg" width="13.938" height="13.938" viewBox="0 0 13.938 13.938">
  <g id="layer2" transform="translate(0 0)">
    <path id="path824" d="M7.233.265A6.969,6.969,0,1,0,14.2,7.233,6.976,6.976,0,0,0,7.233.265Zm0,.929a6.041,6.041,0,1,1-6.04,6.04,6.036,6.036,0,0,1,6.04-6.04ZM7.227,3.519a.465.465,0,0,0-.456.47v.391A1.518,1.518,0,0,0,5.379,5.841a1.661,1.661,0,0,0,.613,1.324,3.475,3.475,0,0,0,1.1.511,3.047,3.047,0,0,1,.82.36.608.608,0,0,1,.253.593c0,.774-1.855.774-1.855,0a.465.465,0,1,0-.929,0,1.52,1.52,0,0,0,1.392,1.462v.389a.465.465,0,1,0,.929,0v-.389A1.521,1.521,0,0,0,9.093,8.63a1.662,1.662,0,0,0-.614-1.324,3.479,3.479,0,0,0-1.1-.512,3.049,3.049,0,0,1-.82-.359.608.608,0,0,1-.253-.593c0-.774,1.855-.774,1.855,0a.465.465,0,1,0,.93,0A1.52,1.52,0,0,0,7.7,4.381V3.989a.465.465,0,0,0-.473-.47Z" transform="translate(-0.265 -0.265)" fill="#34a853"/>
  </g>
</svg>
