<svg xmlns="http://www.w3.org/2000/svg" width="21.001" height="19.829" viewBox="0 0 21.001 19.829">
  <g id="Group_424" data-name="Group 424" transform="translate(-337 -183)">
    <path id="filter_1_" data-name="filter (1)" d="M.49,2.522H7.944a2.28,2.28,0,0,0,4.454,0h2.78a.49.49,0,1,0,0-.979H12.4a2.28,2.28,0,0,0-4.454,0H.49a.49.49,0,1,0,0,.979ZM8.87,2.033s0,0,0-.005a1.3,1.3,0,0,1,2.6,0v.007a1.3,1.3,0,0,1-2.6,0Zm6.307,10.632H12.4a2.28,2.28,0,0,0-4.454,0H.49a.49.49,0,0,0,0,.979H7.944a2.28,2.28,0,0,0,4.454,0h2.78a.49.49,0,0,0,0-.979Zm-5.007,1.79a1.3,1.3,0,0,1-1.3-1.3v0s0,0,0-.005a1.3,1.3,0,0,1,2.6,0v.007a1.3,1.3,0,0,1-1.3,1.3ZM15.178,7.1H7.723a2.28,2.28,0,0,0-4.454,0H.49a.49.49,0,1,0,0,.979H3.27a2.28,2.28,0,0,0,4.454,0h7.455a.49.49,0,1,0,0-.979ZM6.8,7.592s0,0,0,.005a1.3,1.3,0,0,1-2.6,0V7.591a1.3,1.3,0,0,1,2.6,0Z" transform="translate(342.333 187.395)" fill="#0969c3"/>
    <circle id="Ellipse_68" data-name="Ellipse 68" cx="5" cy="5" r="5" transform="translate(337 183)" fill="#ee2f2f"/>
  </g>
</svg>
