<svg xmlns="http://www.w3.org/2000/svg" width="16.725" height="13.938" viewBox="0 0 16.725 13.938">
  <g id="briefcase_2_" data-name="briefcase (2)" transform="translate(0)">
    <g id="Group_128" data-name="Group 128" transform="translate(0)">
      <path id="Path_231" data-name="Path 231" d="M15.331,44.757H11.847v-.7a1.4,1.4,0,0,0-1.394-1.394H6.272A1.4,1.4,0,0,0,4.878,44.06v.7H1.394A1.4,1.4,0,0,0,0,46.15V55.21A1.4,1.4,0,0,0,1.394,56.6H15.331a1.4,1.4,0,0,0,1.394-1.394V46.15A1.4,1.4,0,0,0,15.331,44.757Zm-9.756-.7a.7.7,0,0,1,.7-.7h4.181a.7.7,0,0,1,.7.7v.7H5.575ZM16.028,55.21a.7.7,0,0,1-.7.7H1.394a.7.7,0,0,1-.7-.7V50.138a1.378,1.378,0,0,0,.7.194H6.969v1.045a.348.348,0,0,0,.348.348H9.408a.348.348,0,0,0,.348-.348V50.332h5.575a1.377,1.377,0,0,0,.7-.194V55.21ZM7.666,51.029V49.635H9.059v1.394Zm8.363-2.091a.7.7,0,0,1-.7.7H9.756v-.348a.348.348,0,0,0-.348-.348H7.317a.348.348,0,0,0-.348.348v.348H1.394a.7.7,0,0,1-.7-.7V46.15a.7.7,0,0,1,.7-.7H15.331a.7.7,0,0,1,.7.7Z" transform="translate(0 -42.666)" fill="#34a853"/>
    </g>
  </g>
</svg>
