<svg id="placeholder_1_" data-name="placeholder (1)" xmlns="http://www.w3.org/2000/svg" width="9.8" height="13.938" viewBox="0 0 9.8 13.938">
  <g id="Group_7" data-name="Group 7">
    <g id="Group_6" data-name="Group 6">
      <path id="Path_69" data-name="Path 69" d="M80.9,0a4.9,4.9,0,0,0-4.168,7.476l3.89,6.268a.408.408,0,0,0,.347.193h0a.408.408,0,0,0,.347-.2l3.79-6.329A4.9,4.9,0,0,0,80.9,0Zm3.508,6.991-3.446,5.754-3.536-5.7a4.086,4.086,0,1,1,6.982-.055Z" transform="translate(-76)" fill="#34a853"/>
    </g>
  </g>
  <g id="Group_9" data-name="Group 9" transform="translate(2.45 2.45)">
    <g id="Group_8" data-name="Group 8">
      <path id="Path_70" data-name="Path 70" d="M168.45,90a2.45,2.45,0,1,0,2.45,2.45A2.453,2.453,0,0,0,168.45,90Zm0,4.089a1.639,1.639,0,1,1,1.636-1.639A1.64,1.64,0,0,1,168.45,94.089Z" transform="translate(-166 -90)" fill="#34a853"/>
    </g>
  </g>
</svg>
