<svg xmlns="http://www.w3.org/2000/svg" xmlns:xlink="http://www.w3.org/1999/xlink" width="11.5" height="11.5" viewBox="0 0 11.5 11.5">
  <defs>
    <clipPath id="clip-path">
      <path id="path2511" d="M0-682.665H11.5v11.5H0Z" transform="translate(0 682.665)" fill="#96a0b4"/>
    </clipPath>
  </defs>
  <g id="g2505" transform="translate(0 0)">
    <g id="g2507" transform="translate(0 0)">
      <g id="g2509" clip-path="url(#clip-path)">
        <g id="g2515" transform="translate(1.707 0)">
          <path id="path2517" d="M-235.957-651.165a.337.337,0,0,1-.28-.15c-.257-.385-.55-.8-.861-1.231-1.36-1.9-2.9-4.064-2.9-6.076a4.048,4.048,0,0,1,4.043-4.043,4.048,4.048,0,0,1,4.043,4.043c0,2.012-1.542,4.171-2.9,6.076-.311.435-.6.846-.861,1.231A.337.337,0,0,1-235.957-651.165Zm0-10.826a3.373,3.373,0,0,0-3.369,3.369c0,1.8,1.539,3.952,2.776,5.684.207.29.406.569.593.838.187-.269.386-.548.593-.838,1.237-1.732,2.776-3.888,2.776-5.684A3.373,3.373,0,0,0-235.957-661.991Z" transform="translate(239.999 662.665)" fill="#96a0b4"/>
        </g>
        <g id="g2519" transform="translate(3.729 2.021)">
          <path id="path2521" d="M-117.978-215.957A2.024,2.024,0,0,1-120-217.978,2.024,2.024,0,0,1-117.978-220a2.024,2.024,0,0,1,2.021,2.021A2.024,2.024,0,0,1-117.978-215.957Zm0-3.369a1.349,1.349,0,0,0-1.348,1.348,1.349,1.349,0,0,0,1.348,1.348,1.349,1.349,0,0,0,1.348-1.348A1.349,1.349,0,0,0-117.978-219.326Z" transform="translate(120 219.999)" fill="#96a0b4"/>
        </g>
      </g>
    </g>
  </g>
</svg>
