<svg xmlns="http://www.w3.org/2000/svg" width="110" height="17.229" viewBox="0 0 110 17.229">
  <g id="Group_145" data-name="Group 145" transform="translate(-642 -4185.996)">
    <path id="Icon_awesome-star" data-name="Icon awesome-star" d="M9.476.6l-2.2,4.455L2.363,5.77a1.077,1.077,0,0,0-.6,1.837l3.556,3.465-.841,4.9A1.076,1.076,0,0,0,6.044,17.1l4.4-2.311,4.4,2.311A1.077,1.077,0,0,0,16.4,15.967l-.841-4.9,3.556-3.465a1.077,1.077,0,0,0-.6-1.837L13.6,5.053,11.407.6A1.078,1.078,0,0,0,9.476.6Z" transform="translate(640.559 4185.997)" fill="#f0bb4c"/>
    <path id="Icon_awesome-star-2" data-name="Icon awesome-star" d="M9.476.6l-2.2,4.455L2.363,5.77a1.077,1.077,0,0,0-.6,1.837l3.556,3.465-.841,4.9A1.076,1.076,0,0,0,6.044,17.1l4.4-2.311,4.4,2.311A1.077,1.077,0,0,0,16.4,15.967l-.841-4.9,3.556-3.465a1.077,1.077,0,0,0-.6-1.837L13.6,5.053,11.407.6A1.078,1.078,0,0,0,9.476.6Z" transform="translate(663.559 4185.997)" fill="#f0bb4c"/>
    <path id="Icon_awesome-star-3" data-name="Icon awesome-star" d="M9.476.6l-2.2,4.455L2.363,5.77a1.077,1.077,0,0,0-.6,1.837l3.556,3.465-.841,4.9A1.076,1.076,0,0,0,6.044,17.1l4.4-2.311,4.4,2.311A1.077,1.077,0,0,0,16.4,15.967l-.841-4.9,3.556-3.465a1.077,1.077,0,0,0-.6-1.837L13.6,5.053,11.407.6A1.078,1.078,0,0,0,9.476.6Z" transform="translate(686.559 4185.997)" fill="#f0bb4c"/>
    <path id="Icon_awesome-star-4" data-name="Icon awesome-star" d="M9.476.6l-2.2,4.455L2.363,5.77a1.077,1.077,0,0,0-.6,1.837l3.556,3.465-.841,4.9A1.076,1.076,0,0,0,6.044,17.1l4.4-2.311,4.4,2.311A1.077,1.077,0,0,0,16.4,15.967l-.841-4.9,3.556-3.465a1.077,1.077,0,0,0-.6-1.837L13.6,5.053,11.407.6A1.078,1.078,0,0,0,9.476.6Z" transform="translate(709.559 4185.997)" fill="#f0bb4c"/>
    <path id="Icon_awesome-star-5" data-name="Icon awesome-star" d="M9.476.6l-2.2,4.455L2.363,5.77a1.077,1.077,0,0,0-.6,1.837l3.556,3.465-.841,4.9A1.076,1.076,0,0,0,6.044,17.1l4.4-2.311,4.4,2.311A1.077,1.077,0,0,0,16.4,15.967l-.841-4.9,3.556-3.465a1.077,1.077,0,0,0-.6-1.837L13.6,5.053,11.407.6A1.078,1.078,0,0,0,9.476.6Z" transform="translate(732.559 4185.997)" fill="#f0bb4c"/>
  </g>
</svg>
