<svg xmlns="http://www.w3.org/2000/svg" width="7.639" height="9.338" viewBox="0 0 7.639 9.338">
  <path id="taka" d="M10.638,6.07A4.657,4.657,0,0,1,9.52,9.457a3.084,3.084,0,0,1-2.276.879H5.971A1.273,1.273,0,0,1,4.7,9.063V5.668H3.637a.212.212,0,0,1-.212-.212V5.031a.212.212,0,0,1,.212-.212H4.7V2.273a.424.424,0,0,0-.424-.424H3.212A.212.212,0,0,1,3,1.637V1.212A.212.212,0,0,1,3.212,1H4.273A1.273,1.273,0,0,1,5.546,2.273V4.819H6.607a.212.212,0,0,1,.212.212v.424a.212.212,0,0,1-.212.212H5.546V9.063a.424.424,0,0,0,.424.424H7.244a2.269,2.269,0,0,0,1.675-.629A3.911,3.911,0,0,0,9.79,6.074a.418.418,0,0,0-.424-.406H8.3a.212.212,0,0,1-.212-.212V5.031A.212.212,0,0,1,8.3,4.819H9.365A1.268,1.268,0,0,1,10.638,6.07Z" transform="translate(-3 -1)" fill="#96a0b4"/>
</svg>
